# xmcd
#
# Track frame offsets:
#	150
#	12500
#	23437
#	36225
#	48112
#	62875
#	75850
#	86562
#	105987
#	121125
#	132750
#	145475
#	154725
#	166150
#	180037
#
# Disc length: 2625 seconds
#
# Revision: 2
# Processed by: cddbd v1.5.2PL0 Copyright (c) Steve Scherf et al.
# Submitted via: audiograbber 1.83.01
#
DISCID=a60a3f0f
DTITLE=Various Artist - The ones from the west 2
DYEAR=1997
DGENRE=Country
TTITLE0=Dean Martin - Little Ole' Winedrinker Me
TTITLE1=The Shaklefords - Muddy Muddy River
TTITLE2=Jonny Horton - North To Alaska
TTITLE3=Skeeter Davis - End Of The World
TTITLE4=Kingston Trio - Tom Dooley
TTITLE5=Lynn Anderson - Rose Garden
TTITLE6=John D. Loudermilk - Blue Train
TTITLE7=Billy Joe Royal - To Love Somebody
TTITLE8=Sammy Davis Jr. - Come Sundown
TTITLE9=Don Gibson - I Can't Stop Loving You
TTITLE10=Lee Hazelwood and Nancy Sinatra - Jackson
TTITLE11=Roger Miller - Chug A Lug
TTITLE12=Kenny Rogers - Poem For My Little Lady
TTITLE13=Billy Jo Spears - Mr. Walker It's All Over
TTITLE14=Roy Drusky - The Last Farewell
EXTD=
EXTT0=
EXTT1=
EXTT2=
EXTT3=
EXTT4=
EXTT5=
EXTT6=
EXTT7=
EXTT8=
EXTT9=
EXTT10=
EXTT11=
EXTT12=
EXTT13=
EXTT14=
PLAYORDER=
